REM DIRINDEX 1\2,1\3,1\4,1\5
REM DIRNAME "folder01","folder02","folder03","folder04","folder05"
TITLE ""
FILE "P1Q_t_0449-0458.mp3" MP3
  TRACK 01 AUDIO
    TITLE "3:cjc173_2274"
    INDEX 01 00:00:00
  TRACK 02 AUDIO
    TITLE "0:"
    INDEX 01 00:01:22
  TRACK 03 AUDIO
    TITLE "4:cjc173_2275"
    INDEX 01 00:01:43
  TRACK 04 AUDIO
    TITLE "0:"
    INDEX 01 00:04:71
  TRACK 05 AUDIO
    TITLE "5:cjc173_2276"
    INDEX 01 00:05:15
  TRACK 06 AUDIO
    TITLE "0:"
    INDEX 01 00:09:41
  TRACK 07 AUDIO
    TITLE "3:cjc173_2277"
    INDEX 01 00:10:11
  TRACK 08 AUDIO
    TITLE "0:"
    INDEX 01 00:11:30
  TRACK 09 AUDIO
    TITLE "4:cjc173_2278"
    INDEX 01 00:11:53
  TRACK 10 AUDIO
    TITLE "0:"
    INDEX 01 00:16:13
  TRACK 11 AUDIO
    TITLE "5:cjc173_2279"
    INDEX 01 00:16:35
  TRACK 12 AUDIO
    TITLE "0:"
    INDEX 01 00:19:74
  TRACK 13 AUDIO
    TITLE "3:cjc173_2280"
    INDEX 01 00:20:46
  TRACK 14 AUDIO
    TITLE "0:"
    INDEX 01 00:21:63
  TRACK 15 AUDIO
    TITLE "4:cjc173_2281"
    INDEX 01 00:22:08
  TRACK 16 AUDIO
    TITLE "0:"
    INDEX 01 00:23:45
  TRACK 17 AUDIO
    TITLE "5:cjc173_2282"
    INDEX 01 00:23:66
  TRACK 18 AUDIO
    TITLE "0:"
    INDEX 01 00:30:41
  TRACK 19 AUDIO
    TITLE "3:cjc173_2283"
    INDEX 01 00:31:11
  TRACK 20 AUDIO
    TITLE "0:"
    INDEX 01 00:32:24
  TRACK 21 AUDIO
    TITLE "4:cjc173_2284"
    INDEX 01 00:32:46
  TRACK 22 AUDIO
    TITLE "0:"
    INDEX 01 00:35:52
  TRACK 23 AUDIO
    TITLE "5:cjc173_2285"
    INDEX 01 00:35:71
  TRACK 24 AUDIO
    TITLE "0:"
    INDEX 01 00:41:70
  TRACK 25 AUDIO
    TITLE "3:cjc173_2286"
    INDEX 01 00:42:40
  TRACK 26 AUDIO
    TITLE "0:"
    INDEX 01 00:43:57
  TRACK 27 AUDIO
    TITLE "4:cjc173_2287"
    INDEX 01 00:44:04
  TRACK 28 AUDIO
    TITLE "0:"
    INDEX 01 00:46:10
  TRACK 29 AUDIO
    TITLE "5:cjc173_2288"
    INDEX 01 00:46:32
  TRACK 30 AUDIO
    TITLE "0:"
    INDEX 01 00:50:42
  TRACK 31 AUDIO
    TITLE "3:cjc173_2289"
    INDEX 01 00:51:16
  TRACK 32 AUDIO
    TITLE "0:"
    INDEX 01 00:52:33
  TRACK 33 AUDIO
    TITLE "4:cjc173_2290"
    INDEX 01 00:52:56
  TRACK 34 AUDIO
    TITLE "0:"
    INDEX 01 00:57:12
  TRACK 35 AUDIO
    TITLE "5:cjc173_2291"
    INDEX 01 00:57:34
  TRACK 36 AUDIO
    TITLE "0:"
    INDEX 01 01:01:12
  TRACK 37 AUDIO
    TITLE "3:cjc173_2292"
    INDEX 01 01:01:59
  TRACK 38 AUDIO
    TITLE "0:"
    INDEX 01 01:03:27
  TRACK 39 AUDIO
    TITLE "4:cjc173_2293"
    INDEX 01 01:03:50
  TRACK 40 AUDIO
    TITLE "0:"
    INDEX 01 01:04:63
  TRACK 41 AUDIO
    TITLE "5:cjc173_2294"
    INDEX 01 01:05:10
  TRACK 42 AUDIO
    TITLE "0:"
    INDEX 01 01:10:25
  TRACK 43 AUDIO
    TITLE "3:cjc173_2295"
    INDEX 01 01:10:72
  TRACK 44 AUDIO
    TITLE "0:"
    INDEX 01 01:12:12
  TRACK 45 AUDIO
    TITLE "4:cjc173_2296"
    INDEX 01 01:12:33
  TRACK 46 AUDIO
    TITLE "0:"
    INDEX 01 01:14:32
  TRACK 47 AUDIO
    TITLE "5:cjc173_2297"
    INDEX 01 01:14:52
  TRACK 48 AUDIO
    TITLE "0:"
    INDEX 01 01:19:10
  TRACK 49 AUDIO
    TITLE "3:cjc173_2298"
    INDEX 01 01:19:57
  TRACK 50 AUDIO
    TITLE "0:"
    INDEX 01 01:20:64
  TRACK 51 AUDIO
    TITLE "4:cjc173_2299"
    INDEX 01 01:21:09
  TRACK 52 AUDIO
    TITLE "0:"
    INDEX 01 01:23:53
  TRACK 53 AUDIO
    TITLE "5:cjc173_2300"
    INDEX 01 01:23:72
  TRACK 54 AUDIO
    TITLE "0:"
    INDEX 01 01:27:68
  TRACK 55 AUDIO
    TITLE "3:cjc173_2301"
    INDEX 01 01:28:38
  TRACK 56 AUDIO
    TITLE "0:"
    INDEX 01 01:29:63
  TRACK 57 AUDIO
    TITLE "4:cjc173_2302"
    INDEX 01 01:30:12
  TRACK 58 AUDIO
    TITLE "0:"
    INDEX 01 01:32:32
  TRACK 59 AUDIO
    TITLE "5:cjc173_2303"
    INDEX 01 01:32:52
  TRACK 60 AUDIO
    TITLE "0:"
    INDEX 01 01:37:14
